<?xml version="1.0" encoding="UTF-8" standalone="no"?>
<svg
   xmlns:dc="http://purl.org/dc/elements/1.1/"
   xmlns:cc="http://creativecommons.org/ns#"
   xmlns:rdf="http://www.w3.org/1999/02/22-rdf-syntax-ns#"
   xmlns:svg="http://www.w3.org/2000/svg"
   xmlns="http://www.w3.org/2000/svg"
   xmlns:sodipodi="http://sodipodi.sourceforge.net/DTD/sodipodi-0.dtd"
   xmlns:inkscape="http://www.inkscape.org/namespaces/inkscape"
   inkscape:version="1.0 (4035a4f, 2020-05-01)"
   sodipodi:docname="ig-favicon.svg"
   viewBox="0 0 193 193"
   height="193"
   width="193"
   id="svg192"
   version="1.1">
  <metadata
     id="metadata198">
    <rdf:RDF>
      <cc:Work
         rdf:about="">
        <dc:format>image/svg+xml</dc:format>
        <dc:type
           rdf:resource="http://purl.org/dc/dcmitype/StillImage" />
        <dc:title></dc:title>
      </cc:Work>
    </rdf:RDF>
  </metadata>
  <defs
     id="defs196" />
  <sodipodi:namedview
     inkscape:current-layer="g200"
     inkscape:window-maximized="0"
     inkscape:window-y="23"
     inkscape:window-x="50"
     inkscape:cy="97"
     inkscape:cx="129.5"
     inkscape:zoom="1.1814672"
     showgrid="false"
     id="namedview194"
     inkscape:window-height="755"
     inkscape:window-width="1225"
     inkscape:pageshadow="2"
     inkscape:pageopacity="0"
     guidetolerance="10"
     gridtolerance="10"
     objecttolerance="10"
     borderopacity="1"
     bordercolor="#666666"
     pagecolor="#ffffff" />
  <g
     id="g200"
     inkscape:label="Image"
     inkscape:groupmode="layer">
    <path
       id="path204"
       d="M 30.277474,189.88654 C 18.62491,185.29019 9.5161942,176.6253 5.2577352,166.08588 2.7634065,159.91259 2.7513694,159.63173 2.4370013,100.27872 2.164725,48.870568 2.3568624,39.751656 3.8340915,33.985615 6.957189,21.794948 15.461787,11.622321 27.087928,6.1709425 l 6.111014,-2.8653866 h 64.177416 64.177392 l 7.15919,3.5244549 c 8.62207,4.2446282 16.25779,12.0219742 20.32711,20.7041452 l 2.9142,6.217624 v 63.61086 63.61086 l -2.93141,6.25522 c -3.84102,8.1962 -12.33952,17.05638 -20.15808,21.01597 l -6.26936,3.17503 -63.610862,0.2385 c -59.637906,0.22361 -63.929171,0.11295 -68.707064,-1.77168 z M 144.11019,165.9925 c 9.7043,-3.81676 18.94159,-13.53012 22.40063,-23.55508 2.55693,-7.41046 2.60877,-8.30607 2.60877,-45.07478 0,-36.768716 -0.0519,-37.664322 -2.60877,-45.074785 -3.4547,-10.0124 -12.69034,-19.729481 -22.40063,-23.568354 -6.45039,-2.5501 -6.97931,-2.579277 -46.756699,-2.579277 -39.7774,0 -40.306327,0.02917 -46.756707,2.579277 -9.710301,3.838873 -18.945935,13.555954 -22.400646,23.568354 -2.556918,7.410463 -2.608753,8.306069 -2.608753,45.074785 0,36.48915 0.06937,37.71503 2.540129,44.86855 2.901949,8.40204 10.815706,18.01181 17.74344,21.54608 9.671286,4.93392 13.433265,5.28635 53.657267,5.02681 37.131439,-0.2396 38.216579,-0.30803 44.581969,-2.81158 z M 60.194304,154.98383 C 53.64494,153.6324 49.701828,151.30551 45.354542,146.22668 39.21405,139.0529 38.635767,134.84719 38.635767,97.36264 c 0,-38.157917 0.528601,-41.788037 7.186429,-49.351729 7.548174,-8.575172 8.991673,-8.822305 51.531295,-8.822305 42.539599,0 43.983109,0.247133 51.531289,8.822305 6.65782,7.563692 7.18642,11.193812 7.18642,49.351729 0,38.1122 -0.53376,41.7939 -7.14869,49.30886 -7.56904,8.59887 -8.57706,8.78525 -48.85061,9.03215 -19.436648,0.11915 -37.381571,-0.20477 -39.877596,-0.71982 z m 52.074816,-23.65156 c 2.82114,-1.25523 7.52858,-4.52643 10.46097,-7.26934 15.49727,-14.49587 15.49727,-38.904712 0,-53.400582 -8.12153,-7.596742 -13.65556,-9.715449 -25.376599,-9.715449 -11.721046,0 -17.255072,2.118707 -25.376602,9.715449 -11.416328,10.678627 -14.88548,27.550764 -8.508279,41.379712 4.674447,10.13651 12.758485,17.50144 22.820049,20.79008 6.456263,2.11025 19.567941,1.3533 25.980461,-1.49987 z M 89.458002,119.83318 C 79.74309,116.30987 73.97514,107.93874 73.97514,97.36264 c 0,-16.482819 14.719782,-27.417954 30.53073,-22.680881 9.88922,2.962884 16.22597,11.820476 16.22597,22.680881 0,7.91229 -2.54346,13.57612 -8.18486,18.22624 -6.51907,5.37357 -15.448988,7.0151 -23.088978,4.2443 z M 141.47541,64.82533 c 3.92238,-3.922368 4.10045,-7.959432 0.50947,-11.550403 -5.27028,-5.270278 -14.72885,-1.928631 -14.72885,5.203596 0,8.731666 8.18234,12.383848 14.21938,6.346807 z"
       style="fill:#008000;fill-opacity:1;stroke-width:1.08737" />
  </g>
</svg>
