<?xml version="1.0" encoding="UTF-8" standalone="no"?>
<svg
   xmlns:dc="http://purl.org/dc/elements/1.1/"
   xmlns:cc="http://creativecommons.org/ns#"
   xmlns:rdf="http://www.w3.org/1999/02/22-rdf-syntax-ns#"
   xmlns:svg="http://www.w3.org/2000/svg"
   xmlns="http://www.w3.org/2000/svg"
   xmlns:sodipodi="http://sodipodi.sourceforge.net/DTD/sodipodi-0.dtd"
   xmlns:inkscape="http://www.inkscape.org/namespaces/inkscape"
   width="110mm"
   height="40mm"
   viewBox="0 0 109.99999 40"
   version="1.1"
   id="svg116"
   inkscape:version="1.0 (4035a4f, 2020-05-01)"
   sodipodi:docname="instagreen.svg">
  <title
     id="title21">Instagreen</title>
  <defs
     id="defs110">
    <rect
       x="6.8035712"
       y="9.0714283"
       width="195.79167"
       height="62.744049"
       id="rect120" />
  </defs>
  <sodipodi:namedview
     width="593mm"
     id="base"
     pagecolor="#ffffff"
     bordercolor="#666666"
     borderopacity="1.0"
     inkscape:pageopacity="0.0"
     inkscape:pageshadow="2"
     inkscape:zoom="1.0651304"
     inkscape:cx="237.78996"
     inkscape:cy="183.26841"
     inkscape:document-units="mm"
     inkscape:current-layer="layer1"
     inkscape:document-rotation="0"
     showgrid="false"
     inkscape:window-width="1246"
     inkscape:window-height="703"
     inkscape:window-x="34"
     inkscape:window-y="23"
     inkscape:window-maximized="0" />
  <metadata
     id="metadata113">
    <rdf:RDF>
      <cc:Work
         rdf:about="">
        <dc:format>image/svg+xml</dc:format>
        <dc:type
           rdf:resource="http://purl.org/dc/dcmitype/StillImage" />
        <dc:title>Instagreen</dc:title>
        <dc:creator>
          <cc:Agent>
            <dc:title>toogreen</dc:title>
          </cc:Agent>
        </dc:creator>
        <dc:publisher>
          <cc:Agent>
            <dc:title>toogreen (David Gagnon)</dc:title>
          </cc:Agent>
        </dc:publisher>
        <dc:source></dc:source>
        <dc:description>font used was Billabong
</dc:description>
      </cc:Work>
    </rdf:RDF>
  </metadata>
  <g
     inkscape:label="Layer 1"
     inkscape:groupmode="layer"
     id="layer1">
    <g
       style="font-style:normal;font-weight:normal;font-size:10.58329999999999949px;line-height:1.25;font-family:sans-serif;white-space:pre;shape-inside:url(#rect120);fill:#008000;fill-opacity:1;stroke:none"
       id="text118"
       transform="matrix(3.2667476,0,0,3.2667476,-19.961096,-37.771178)"
       aria-label="Instagreen">
      <path
         id="path74"
         style="font-style:normal;font-variant:normal;font-weight:normal;font-stretch:normal;font-family:Billabong;-inkscape-font-specification:Billabong;fill:#008000"
         d="m 10.824388,12.398918 q -0.01058,0.01058 -0.03175,0.05292 -0.01058,0.04233 -0.01058,0.148166 0,0.148166 0.04233,0.285749 v 3.503073 q 0,0.539748 -0.105833,1.037163 -0.105833,0.497415 -0.370415,0.888997 -0.253999,0.380999 -0.7090813,0.603248 -0.4444986,0.232833 -1.1429964,0.232833 H 8.3584794 q -0.6032481,0 -0.9842468,-0.169333 Q 7.0038171,18.82298 6.7921511,18.568981 6.5804851,18.314982 6.506402,18.01865 q -0.074083,-0.306916 -0.074083,-0.582082 0,-0.232832 0.0635,-0.444498 0.052917,-0.22225 0.1693328,-0.380999 0.105833,-0.169333 0.2645825,-0.264583 0.1587495,-0.105833 0.3598322,-0.105833 0.1904994,0 0.2434158,0.105833 0.052917,0.09525 0.052917,0.201083 0,0.232833 -0.09525,0.391582 -0.09525,0.148166 -0.211666,0.264583 -0.105833,0.116416 -0.2010827,0.232832 -0.09525,0.116416 -0.09525,0.285749 0,0.507999 0.3386656,0.730248 0.3386655,0.222249 0.8466639,0.222249 0.4444986,0 0.7725809,-0.179916 0.3280823,-0.179916 0.5397483,-0.455082 0.2222493,-0.275166 0.3280823,-0.592665 0.105833,-0.328082 0.105833,-0.613831 l -0.1587495,0.01058 q -0.3809988,0 -0.6667479,-0.169332 Q 8.8135613,16.494655 8.6230619,16.230072 8.4431458,15.96549 8.3478961,15.658574 8.2632297,15.351658 8.2632297,15.087076 V 14.71666 q 0,-0.201083 0.052917,-0.465665 0.052917,-0.275166 0.1481662,-0.560915 0.09525,-0.296332 0.2328326,-0.571498 0.1375829,-0.285749 0.2963324,-0.507998 0.1587495,-0.22225 0.3386656,-0.359833 0.1799161,-0.137583 0.3704155,-0.137583 0.074083,0 0.1693328,0.03175 l 0.7408307,0.05292 q 0.07408,0.01058 0.137583,0.05292 0.07408,0.04233 0.07408,0.148167 z m -0.9101635,1.269996 q 0.021167,-0.08467 0.042333,-0.15875 0.021167,-0.07408 0.021167,-0.169333 0,-0.137583 -0.074083,-0.243416 -0.0635,-0.116416 -0.2434159,-0.116416 -0.2328326,0 -0.3809988,0.190499 -0.1481662,0.1905 -0.2328326,0.455082 -0.074083,0.264583 -0.105833,0.550332 -0.03175,0.285749 -0.03175,0.465665 0,0.137583 0.021167,0.402165 0.021167,0.254 0.09525,0.507999 0.084666,0.253999 0.2222493,0.444498 0.1481662,0.1905 0.3915821,0.1905 0.021167,0 0.1164163,-0.01058 0.105833,-0.01058 0.1587495,-0.03175 z" />
      <path
         id="path76"
         style="font-style:normal;font-variant:normal;font-weight:normal;font-stretch:normal;font-family:Billabong;-inkscape-font-specification:Billabong;fill:#008000"
         d="m 13.242176,16.420571 q -0.158749,0.22225 -0.264582,0.497415 -0.09525,0.264583 -0.169333,0.560915 -0.07408,0.285749 -0.127,0.582082 -0.04233,0.285749 -0.09525,0.550331 -0.02117,0.0635 -0.169333,0.08467 -0.137583,0.02117 -0.201083,0.02117 -0.190499,0 -0.317499,-0.02117 -0.116416,-0.02117 -0.179916,-0.09525 -0.0635,-0.08467 -0.09525,-0.243416 -0.03175,-0.169333 -0.05292,-0.444498 l 0.137583,-3.14324 q 0,-0.137583 0.148166,-0.137583 0.05292,0 0.148166,0.02117 0.09525,0.01058 0.201083,0.04233 0.105833,0.03175 0.179916,0.08467 0.07408,0.04233 0.07408,0.105833 v 2.14841 q 0.01058,-0.01058 0.03175,-0.08467 0.07408,-0.190499 0.179916,-0.465665 0.105833,-0.285749 0.232833,-0.539748 0.126999,-0.253999 0.264582,-0.433915 0.148166,-0.179916 0.296332,-0.179916 0.1905,0 0.28575,0.09525 0.105833,0.08467 0.158749,0.22225 0.05292,0.137582 0.0635,0.296332 0.01058,0.158749 0.01058,0.306916 0,0.105833 -0.02117,0.349249 -0.02117,0.243415 -0.02117,0.730247 0,0.275166 0.05292,0.497415 0.05292,0.22225 0.211666,0.22225 0.116417,0 0.211666,-0.105833 0.09525,-0.105833 0.169333,-0.264583 0.08467,-0.158749 0.137583,-0.338666 0.05292,-0.179916 0.0635,-0.338665 0.01058,-0.201083 0.158749,-0.201083 0.09525,0 0.127,0.0635 0.03175,0.0635 0.03175,0.148166 v 0.02117 q -0.01058,0.211666 -0.08467,0.476248 -0.0635,0.264583 -0.201082,0.497415 -0.127,0.232833 -0.338666,0.391582 -0.211666,0.15875 -0.518581,0.15875 -0.476249,0 -0.613832,-0.338666 -0.126999,-0.349249 -0.126999,-1.02658 z" />
      <path
         id="path78"
         style="font-style:normal;font-variant:normal;font-weight:normal;font-stretch:normal;font-family:Billabong;-inkscape-font-specification:Billabong;fill:#008000"
         d="m 17.366356,18.071566 q 0,0.253999 -0.169333,0.391582 -0.169333,0.137583 -0.391582,0.201083 -0.211666,0.0635 -0.433915,0.07408 -0.211666,0.02117 -0.306916,0.02117 -0.148166,0 -0.370415,-0.03175 -0.211666,-0.03175 -0.423332,-0.09525 -0.201083,-0.07408 -0.349249,-0.201083 -0.137583,-0.126999 -0.137583,-0.317499 0,-0.116416 0.08467,-0.158749 0.09525,-0.05292 0.179916,-0.05292 0.116417,0 0.22225,0.08467 0.116416,0.08467 0.232832,0.179916 0.127,0.09525 0.275166,0.179916 0.148166,0.08467 0.338666,0.08467 0.08467,0 0.222249,-0.05292 0.148166,-0.0635 0.148166,-0.211666 0,-0.148166 -0.126999,-0.285749 -0.116417,-0.137583 -0.306916,-0.285749 -0.179916,-0.148167 -0.391582,-0.306916 -0.211666,-0.15875 -0.402166,-0.338666 -0.179916,-0.190499 -0.306915,-0.412748 -0.116417,-0.22225 -0.116417,-0.486832 0,-0.370416 0.232833,-0.624415 0.243416,-0.253999 0.560915,-0.402165 0.328082,-0.148166 0.666748,-0.211666 0.338665,-0.0635 0.529165,-0.0635 0.179916,0 0.359832,0.07408 0.179916,0.07408 0.179916,0.285749 0,0.0635 -0.03175,0.1905 -0.02117,0.116416 -0.08467,0.232832 -0.05292,0.116417 -0.148167,0.211666 -0.09525,0.08467 -0.243415,0.08467 -0.04233,0 -0.08467,-0.03175 -0.04233,-0.04233 -0.09525,-0.08467 -0.05292,-0.05292 -0.116416,-0.08467 -0.05292,-0.04233 -0.126999,-0.04233 -0.370416,0 -0.518582,0.222249 -0.148166,0.211666 -0.148166,0.455082 0,0.211666 0.243416,0.444499 0.253999,0.232832 0.550331,0.465665 0.306916,0.232832 0.550332,0.465665 0.253999,0.222249 0.253999,0.433915 z" />
      <path
         id="path80"
         style="font-style:normal;font-variant:normal;font-weight:normal;font-stretch:normal;font-family:Billabong;-inkscape-font-specification:Billabong;fill:#008000"
         d="m 17.583975,16.812154 q 0.01058,-0.539749 0.03175,-1.100664 0.02117,-0.560915 0.04233,-1.037163 0,-0.08467 -0.169333,-0.116416 -0.169333,-0.03175 -0.380999,-0.0635 -0.211666,-0.03175 -0.380999,-0.09525 -0.169332,-0.07408 -0.169332,-0.232832 0,-0.137583 0.275165,-0.15875 0.275166,-0.02117 0.814915,-0.02117 0.04233,0 0.05292,-0.126999 0.02117,-0.127 0.02117,-0.317499 0.01058,-0.201083 0.01058,-0.423332 0.01058,-0.222249 0.02117,-0.412749 0.01058,-0.201082 0.03175,-0.328082 0.03175,-0.127 0.07408,-0.127 0.05292,0 0.190499,0.02117 0.137583,0.02117 0.285749,0.0635 0.148166,0.03175 0.253999,0.08467 0.116417,0.05292 0.116417,0.116416 l -0.116417,1.375829 q 0,0.0635 0.105833,0.09525 0.116417,0.02117 0.285749,0.03175 0.179916,0 0.370416,0 0.201082,0 0.370415,0.03175 0.179916,0.03175 0.285749,0.105833 0.116417,0.0635 0.116417,0.201083 0,0.02117 -0.02117,0.07408 -0.02117,0.04233 -0.05292,0.04233 -0.02117,0 -0.0635,-0.03175 -0.03175,-0.03175 -0.1905,-0.03175 -0.04233,0 -0.232832,0.01058 -0.1905,0.01058 -0.402166,0.03175 -0.211666,0.02117 -0.391582,0.05292 -0.169332,0.02117 -0.190499,0.0635 -0.01058,0.02117 -0.03175,0.253999 -0.01058,0.222249 -0.03175,0.592665 -0.01058,0.370415 -0.02117,0.857247 -0.01058,0.476248 -0.01058,1.005413 0,0.201083 0.02117,0.391582 0.02117,0.1905 0.0635,0.349249 0.04233,0.148166 0.105833,0.243416 0.07408,0.09525 0.169332,0.09525 0.137583,0 0.254,-0.116416 0.116416,-0.116417 0.211666,-0.317499 0.09525,-0.201083 0.169332,-0.455082 0.07408,-0.254 0.127,-0.518582 0.03175,-0.158749 0.07408,-0.222249 0.04233,-0.07408 0.127,-0.07408 0.07408,0 0.126999,0.05292 0.0635,0.04233 0.0635,0.211666 0,0.105833 -0.01058,0.137583 -0.03175,0.190499 -0.127,0.529165 -0.08467,0.328082 -0.243416,0.656165 -0.148166,0.317499 -0.370415,0.560914 -0.222249,0.243416 -0.518582,0.243416 -0.285749,0 -0.497415,-0.169332 -0.211666,-0.15875 -0.359832,-0.444499 -0.137583,-0.296332 -0.211666,-0.687915 -0.07408,-0.402165 -0.07408,-0.857247 z" />
      <path
         id="path82"
         style="font-style:normal;font-variant:normal;font-weight:normal;font-stretch:normal;font-family:Billabong;-inkscape-font-specification:Billabong;fill:#008000"
         d="m 23.864336,17.574151 q -0.02117,0.148166 -0.105833,0.349249 -0.08467,0.201083 -0.222249,0.391582 -0.127,0.179916 -0.306916,0.306916 -0.169333,0.126999 -0.380999,0.126999 -0.317499,0 -0.560914,-0.243416 -0.232833,-0.243415 -0.28575,-0.687914 -0.0635,0.169333 -0.148166,0.391582 -0.08467,0.222249 -0.211666,0.412749 -0.126999,0.190499 -0.296332,0.317499 -0.15875,0.137583 -0.380999,0.137583 -0.0635,0 -0.09525,-0.01058 -0.03175,-0.01058 -0.07408,-0.03175 -0.03175,-0.01058 -0.08467,-0.02117 -0.04233,-0.01058 -0.127,-0.01058 -0.253999,0 -0.433915,-0.169333 -0.169333,-0.15875 -0.275166,-0.412749 -0.105833,-0.253999 -0.158749,-0.550332 -0.04233,-0.306915 -0.04233,-0.571498 0,-0.634998 0.0635,-1.206496 0.07408,-0.571498 0.232833,-1.005413 0.158749,-0.444499 0.412749,-0.698498 0.253999,-0.264583 0.613831,-0.264583 0.211666,0 0.317499,0.04233 0.116416,0.03175 0.211666,0.08467 0.09525,0.04233 0.201083,0.09525 0.116416,0.05292 0.317499,0.08467 0.222249,0.127 0.306915,0.306916 0.09525,0.169333 0.116417,0.370415 0.03175,0.201083 0.02117,0.423332 -0.01058,0.211666 0.02117,0.423332 0,0.01058 0.04233,0.03175 0.05292,0.02117 0.116416,0.05292 0.0635,0.02117 0.105833,0.07408 0.05292,0.04233 0.05292,0.116416 v 0.04233 q -0.105833,0.275166 -0.127,0.486832 -0.02117,0.211666 -0.02117,0.507998 0,0.148167 0.01058,0.328083 0.02117,0.169332 0.05292,0.328082 0.04233,0.148166 0.116417,0.253999 0.07408,0.09525 0.190499,0.09525 0.127,0 0.222249,-0.127 0.105833,-0.126999 0.169333,-0.285749 0.07408,-0.169333 0.116416,-0.338665 0.05292,-0.169333 0.0635,-0.254 0.02117,-0.126999 0.105833,-0.126999 0.05292,0 0.09525,0.0635 0.05292,0.05292 0.05292,0.201082 0,0.04233 0,0.08467 0,0.03175 -0.01058,0.08467 z m -1.95791,-1.714494 q 0,-0.116417 -0.02117,-0.275166 -0.02117,-0.15875 -0.07408,-0.296333 -0.05292,-0.137583 -0.158749,-0.232832 -0.105833,-0.09525 -0.28575,-0.09525 -0.296332,0 -0.486831,0.275166 -0.179916,0.264582 -0.285749,0.634998 -0.105833,0.359832 -0.137583,0.751414 -0.03175,0.380999 -0.03175,0.603248 0,0.169333 0.01058,0.412749 0.02117,0.232832 0.0635,0.444498 0.04233,0.211666 0.116416,0.359833 0.08467,0.148166 0.211666,0.148166 0.306916,0 0.465665,-0.232833 0.169333,-0.243416 0.254,-0.592665 0.08467,-0.359832 0.116416,-0.761997 0.04233,-0.412749 0.07408,-0.751414 0.02117,-0.179916 0.09525,-0.22225 0.07408,-0.05292 0.07408,-0.07408 z" />
      <path
         id="path84"
         style="font-style:normal;font-variant:normal;font-weight:normal;font-stretch:normal;font-family:Billabong;-inkscape-font-specification:Billabong;fill:#008000"
         d="m 27.06347,19.002897 q 0,0.105833 -0.09525,0.148166 -0.09525,0.04233 -0.179916,0.04233 l -0.211666,-0.02117 q -0.05292,0 -0.05292,0.0635 l -0.01058,0.127 q 0.01058,0.285749 0.01058,0.719664 0,0.433915 0,0.836081 0,0.423332 -0.03175,0.825497 -0.02117,0.412749 -0.116416,0.730248 -0.09525,0.328082 -0.275166,0.518581 -0.169333,0.201083 -0.476249,0.201083 -0.264582,0 -0.560915,-0.03175 -0.285749,-0.02117 -0.529165,-0.126999 -0.232832,-0.105833 -0.391582,-0.317499 -0.148166,-0.201083 -0.148166,-0.550332 0,-0.349249 0.07408,-0.719664 0.08467,-0.359832 0.232833,-0.709081 0.148166,-0.338666 0.349249,-0.656165 0.211666,-0.306916 0.455082,-0.550331 0.126999,-0.127 0.275165,-0.264583 0.15875,-0.127 0.275166,-0.211666 v -0.01058 q 0.02117,-0.22225 0.03175,-0.444499 0.01058,-0.222249 0.01058,-0.455082 -0.05292,0.09525 -0.126999,0.264583 -0.07408,0.158749 -0.179916,0.306915 -0.09525,0.148167 -0.22225,0.254 -0.126999,0.116416 -0.285749,0.116416 -0.08467,0 -0.148166,-0.03175 -0.0635,-0.03175 -0.179916,-0.03175 -0.296332,-0.02117 -0.497415,-0.158749 -0.190499,-0.137583 -0.306916,-0.380999 -0.105833,-0.243416 -0.148166,-0.571498 -0.04233,-0.338666 -0.04233,-0.751415 0,-0.497415 0.05292,-1.02658 0.0635,-0.529165 0.211666,-0.96308 0.148166,-0.444499 0.391582,-0.719664 0.254,-0.285749 0.634998,-0.285749 0.04233,0 0.105833,0.03175 0.07408,0.03175 0.148167,0.07408 0.08467,0.03175 0.158749,0.07408 0.08467,0.03175 0.127,0.04233 0.211666,0.04233 0.391582,0.105833 0.179916,0.0635 0.306915,0.169333 0.127,0.09525 0.201083,0.264582 0.07408,0.15875 0.07408,0.402166 0,0.169332 -0.03175,0.306915 -0.02117,0.137583 -0.02117,0.349249 0,0.08467 0.0635,0.116416 0.0635,0.03175 0.137582,0.05292 0.08467,0.02117 0.148167,0.05292 0.0635,0.02117 0.0635,0.105833 0,0.02117 -0.05292,0.105833 -0.04233,0.07408 -0.05292,0.09525 -0.03175,0.08467 -0.05292,0.275166 -0.02117,0.179916 -0.03175,0.402165 -0.01058,0.211666 -0.02117,0.444499 0,0.222249 0,0.402165 0,0.137583 0,0.370416 0,0.222249 0.01058,0.370415 h 0.04233 q 0.02117,0 0.04233,-0.01058 0.02117,0 0.03175,0 0.09525,0 0.253999,0.05292 0.169333,0.0635 0.169333,0.179917 z m -1.354662,-3.27024 q 0,-0.116416 -0.02117,-0.264583 -0.02117,-0.148166 -0.07408,-0.275165 -0.05292,-0.137583 -0.15875,-0.22225 -0.09525,-0.09525 -0.243415,-0.09525 -0.201083,0 -0.380999,0.158749 -0.169333,0.15875 -0.306916,0.455082 -0.127,0.285749 -0.211666,0.709081 -0.07408,0.412749 -0.07408,0.941914 0,0.222249 0.01058,0.465665 0.02117,0.232833 0.05292,0.423332 0.04233,0.190499 0.116416,0.317499 0.08467,0.127 0.211666,0.127 0.222249,0 0.391582,-0.1905 0.169333,-0.190499 0.275166,-0.465665 0.116416,-0.285749 0.169333,-0.582082 0.0635,-0.306915 0.07408,-0.529164 0.01058,-0.306916 0.03175,-0.412749 0.02117,-0.116416 0.04233,-0.148166 0.0635,-0.08467 0.07408,-0.201083 0.02117,-0.116416 0.02117,-0.211666 z m -0.04233,3.682988 q -0.243415,0.169333 -0.465665,0.476249 -0.211666,0.306915 -0.370415,0.666748 -0.15875,0.359832 -0.253999,0.730247 -0.08467,0.370416 -0.08467,0.666748 0,0.105833 0.02117,0.232833 0.02117,0.126999 0.0635,0.232832 0.05292,0.116417 0.137582,0.1905 0.09525,0.07408 0.22225,0.07408 0.222249,0 0.359832,-0.1905 0.148166,-0.179916 0.222249,-0.433915 0.08467,-0.253999 0.105833,-0.518582 0.03175,-0.264582 0.03175,-0.423332 0,-0.03175 0,-0.09525 0,-0.0635 0,-0.243416 0.01058,-0.179916 0.01058,-0.507999 0,-0.317499 0,-0.857247 z" />
      <path
         id="path86"
         style="font-style:normal;font-variant:normal;font-weight:normal;font-stretch:normal;font-family:Billabong;-inkscape-font-specification:Billabong;fill:#008000"
         d="m 30.223245,17.235485 q 0,0.07408 -0.05292,0.359833 -0.04233,0.275165 -0.169332,0.592664 -0.116417,0.306916 -0.328083,0.550332 -0.201082,0.243416 -0.518581,0.243416 -0.338666,0 -0.539749,-0.243416 -0.201082,-0.232833 -0.306915,-0.560915 -0.105833,-0.338665 -0.137583,-0.698498 -0.03175,-0.370415 -0.03175,-0.613831 0,-0.275166 0.03175,-0.550332 0.03175,-0.285749 0.04233,-0.560914 0,-0.08467 -0.08467,-0.105833 -0.08467,-0.02117 -0.15875,-0.02117 -0.127,0 -0.158749,0.03175 -0.03175,0.03175 -0.04233,0.07408 l -0.04233,0.338666 q -0.04233,0.338665 -0.09525,0.656164 -0.04233,0.306916 -0.105833,0.550332 -0.05292,0.232832 -0.137582,0.380998 -0.07408,0.137583 -0.179917,0.137583 h -0.01058 q -0.04233,0 -0.08467,-0.02117 -0.03175,-0.02117 -0.03175,-0.105833 0,-0.04233 0.02117,-0.127 0.08467,-0.370415 0.105833,-0.613831 0.02117,-0.243416 0.03175,-0.433915 v -0.07408 q 0,-0.05292 0,-0.126999 0.01058,-0.07408 0.01058,-0.179916 V 15.83849 q 0,-0.116416 0,-0.243416 0,-0.127 -0.02117,-0.275166 l -0.03175,-0.624414 q 0,-0.0635 0.05292,-0.116417 0.05292,-0.05292 0.137583,-0.09525 0.08467,-0.04233 0.179916,-0.0635 0.09525,-0.02117 0.169332,-0.02117 0.179917,0 0.179917,0.232833 v 0.05292 l -0.01058,0.232833 v 0.0635 q 0,0.07408 0.03175,0.09525 0.03175,0.01058 0.127,0.03175 h 0.03175 q 0.08467,0.01058 0.275165,0.02117 0.1905,0.01058 0.380999,0.04233 0.1905,0.03175 0.328083,0.105833 0.148166,0.0635 0.148166,0.190499 0,0.04233 -0.02117,0.127 -0.02117,0.07408 -0.05292,0.15875 -0.03175,0.07408 -0.05292,0.137582 -0.02117,0.0635 -0.02117,0.08467 -0.1905,0.730248 -0.1905,1.523995 0,0.0635 0.01058,0.232833 0.01058,0.169332 0.04233,0.349248 0.03175,0.179917 0.09525,0.317499 0.0635,0.137583 0.15875,0.137583 0.158749,0 0.285749,-0.190499 0.127,-0.201083 0.222249,-0.455082 0.09525,-0.264582 0.148166,-0.529165 0.0635,-0.264582 0.08467,-0.391582 0.02117,-0.116416 0.0635,-0.137583 0.05292,-0.03175 0.09525,-0.03175 0.148166,0 0.148166,0.1905 0,0.02117 -0.01058,0.116416 0,0.08467 -0.01058,0.126999 z" />
      <path
         id="path88"
         style="font-style:normal;font-variant:normal;font-weight:normal;font-stretch:normal;font-family:Billabong;-inkscape-font-specification:Billabong;fill:#008000"
         d="m 33.069161,17.097903 q 0,0.264582 -0.09525,0.592664 -0.09525,0.328083 -0.296332,0.613832 -0.201083,0.275166 -0.518582,0.465665 -0.306916,0.190499 -0.740831,0.190499 -0.412749,0 -0.698498,-0.148166 -0.285749,-0.148166 -0.476248,-0.402165 -0.179917,-0.253999 -0.264583,-0.592665 -0.07408,-0.349249 -0.07408,-0.730248 0,-0.370415 0.08467,-0.814914 0.08467,-0.444498 0.264583,-0.825497 0.179916,-0.391582 0.455082,-0.645581 0.275166,-0.264583 0.666748,-0.264583 0.190499,0 0.359832,0.08467 0.169333,0.07408 0.296332,0.201083 0.127,0.127 0.201083,0.296333 0.07408,0.169332 0.08467,0.349248 l 0.01058,0.148167 q 0,0.253999 -0.08467,0.560915 -0.08467,0.296332 -0.243416,0.560914 -0.158749,0.254 -0.391582,0.433916 -0.232832,0.169332 -0.529165,0.169332 -0.05292,0 -0.137583,-0.01058 -0.07408,-0.01058 -0.148166,-0.03175 v 0.306916 q 0,0.07408 0.04233,0.211666 0.05292,0.137583 0.148167,0.275166 0.09525,0.126999 0.243415,0.232832 0.15875,0.09525 0.380999,0.09525 0.306916,0 0.497415,-0.116416 0.201083,-0.127 0.328083,-0.317499 0.126999,-0.1905 0.190499,-0.423332 0.07408,-0.243416 0.116416,-0.465665 0.03175,-0.148167 0.0635,-0.201083 0.03175,-0.05292 0.105833,-0.05292 0.15875,0 0.15875,0.179916 z m -1.24883,-1.640412 q 0,-0.08467 -0.05292,-0.179916 -0.04233,-0.09525 -0.169333,-0.09525 -0.190499,0 -0.328082,0.201083 -0.137583,0.201083 -0.232833,0.465665 -0.08467,0.253999 -0.127,0.497415 -0.04233,0.232833 -0.04233,0.306916 v 0.03175 q 0,0.09525 0.01058,0.158749 0.02117,0.05292 0.116416,0.05292 h 0.05292 q 0.211666,0 0.359833,-0.15875 0.148166,-0.158749 0.232832,-0.380998 0.09525,-0.22225 0.137583,-0.455082 0.04233,-0.232833 0.04233,-0.380999 z" />
      <path
         id="path90"
         style="font-style:normal;font-variant:normal;font-weight:normal;font-stretch:normal;font-family:Billabong;-inkscape-font-specification:Billabong;fill:#008000"
         d="m 35.921692,17.097903 q 0,0.264582 -0.09525,0.592664 -0.09525,0.328083 -0.296332,0.613832 -0.201083,0.275166 -0.518582,0.465665 -0.306915,0.190499 -0.740831,0.190499 -0.412748,0 -0.698497,-0.148166 -0.28575,-0.148166 -0.476249,-0.402165 -0.179916,-0.253999 -0.264582,-0.592665 -0.07408,-0.349249 -0.07408,-0.730248 0,-0.370415 0.08467,-0.814914 0.08467,-0.444498 0.264582,-0.825497 0.179916,-0.391582 0.455082,-0.645581 0.275166,-0.264583 0.666748,-0.264583 0.190499,0 0.359832,0.08467 0.169333,0.07408 0.296333,0.201083 0.126999,0.127 0.201082,0.296333 0.07408,0.169332 0.08467,0.349248 l 0.01058,0.148167 q 0,0.253999 -0.08467,0.560915 -0.08467,0.296332 -0.243416,0.560914 -0.15875,0.254 -0.391582,0.433916 -0.232833,0.169332 -0.529165,0.169332 -0.05292,0 -0.137583,-0.01058 -0.07408,-0.01058 -0.148166,-0.03175 v 0.306916 q 0,0.07408 0.04233,0.211666 0.05292,0.137583 0.148166,0.275166 0.09525,0.126999 0.243416,0.232832 0.158749,0.09525 0.380999,0.09525 0.306915,0 0.497415,-0.116416 0.201082,-0.127 0.328082,-0.317499 0.127,-0.1905 0.190499,-0.423332 0.07408,-0.243416 0.116417,-0.465665 0.03175,-0.148167 0.0635,-0.201083 0.03175,-0.05292 0.105833,-0.05292 0.158749,0 0.158749,0.179916 z m -1.248829,-1.640412 q 0,-0.08467 -0.05292,-0.179916 -0.04233,-0.09525 -0.169333,-0.09525 -0.190499,0 -0.328082,0.201083 -0.137583,0.201083 -0.232833,0.465665 -0.08467,0.253999 -0.126999,0.497415 -0.04233,0.232833 -0.04233,0.306916 v 0.03175 q 0,0.09525 0.01058,0.158749 0.02117,0.05292 0.116416,0.05292 h 0.05292 q 0.211666,0 0.359832,-0.15875 0.148166,-0.158749 0.232833,-0.380998 0.09525,-0.22225 0.137582,-0.455082 0.04233,-0.232833 0.04233,-0.380999 z" />
      <path
         id="path92"
         style="font-style:normal;font-variant:normal;font-weight:normal;font-stretch:normal;font-family:Billabong;-inkscape-font-specification:Billabong;fill:#008000"
         d="m 37.281976,16.420571 q -0.158749,0.22225 -0.264582,0.497415 -0.09525,0.264583 -0.169333,0.560915 -0.07408,0.285749 -0.127,0.582082 -0.04233,0.285749 -0.09525,0.550331 -0.02117,0.0635 -0.169333,0.08467 -0.137583,0.02117 -0.201083,0.02117 -0.190499,0 -0.317499,-0.02117 -0.116416,-0.02117 -0.179916,-0.09525 -0.0635,-0.08467 -0.09525,-0.243416 -0.03175,-0.169333 -0.05292,-0.444498 l 0.137583,-3.14324 q 0,-0.137583 0.148166,-0.137583 0.05292,0 0.148166,0.02117 0.09525,0.01058 0.201083,0.04233 0.105833,0.03175 0.179916,0.08467 0.07408,0.04233 0.07408,0.105833 v 2.14841 q 0.01058,-0.01058 0.03175,-0.08467 0.07408,-0.190499 0.179916,-0.465665 0.105833,-0.285749 0.232833,-0.539748 0.126999,-0.253999 0.264582,-0.433915 0.148166,-0.179916 0.296333,-0.179916 0.190499,0 0.285749,0.09525 0.105833,0.08467 0.158749,0.22225 0.05292,0.137582 0.0635,0.296332 0.01058,0.158749 0.01058,0.306916 0,0.105833 -0.02117,0.349249 -0.02117,0.243415 -0.02117,0.730247 0,0.275166 0.05292,0.497415 0.05292,0.22225 0.211666,0.22225 0.116416,0 0.211666,-0.105833 0.09525,-0.105833 0.169332,-0.264583 0.08467,-0.158749 0.137583,-0.338666 0.05292,-0.179916 0.0635,-0.338665 0.01058,-0.201083 0.15875,-0.201083 0.09525,0 0.126999,0.0635 0.03175,0.0635 0.03175,0.148166 v 0.02117 q -0.01058,0.211666 -0.08467,0.476248 -0.0635,0.264583 -0.201083,0.497415 -0.127,0.232833 -0.338666,0.391582 -0.211666,0.15875 -0.518581,0.15875 -0.476249,0 -0.613832,-0.338666 -0.126999,-0.349249 -0.126999,-1.02658 z" />
    </g>
  </g>
</svg>
