<?xml version="1.0" standalone="no"?>
<!DOCTYPE svg PUBLIC "-//W3C//DTD SVG 20010904//EN"
 "http://www.w3.org/TR/2001/REC-SVG-20010904/DTD/svg10.dtd">
<svg version="1.0" xmlns="http://www.w3.org/2000/svg"
 width="470.000000pt" height="326.000000pt" viewBox="0 0 470.000000 326.000000"
 preserveAspectRatio="xMidYMid meet">

<g transform="translate(0.000000,326.000000) scale(0.100000,-0.100000)"
fill="#000000" stroke="none">
<path d="M1418 2505 c-15 -9 -32 -24 -38 -35 -6 -12 -10 -246 -10 -675 0 -723
-3 -692 62 -714 40 -14 431 -14 481 0 20 5 44 21 53 34 19 29 73 34 128 11 72
-30 115 -214 116 -489 0 -10 12 -30 28 -44 25 -24 31 -25 107 -20 181 11 294
97 351 267 14 42 18 83 17 177 l0 123 191 0 c180 0 194 2 241 24 93 44 154
135 155 231 1 124 -61 842 -77 884 -30 84 -108 150 -201 170 -35 7 -217 11
-548 11 l-495 0 -24 28 -23 27 -244 2 c-201 2 -248 0 -270 -12z m382 -710 l0
-535 -125 0 -125 0 0 535 0 535 125 0 125 0 0 -535z m1226 452 l28 -24 32
-409 c18 -225 30 -419 27 -432 -3 -12 -17 -31 -30 -42 -24 -19 -41 -20 -274
-20 l-247 0 -31 -26 c-36 -30 -38 -47 -16 -149 23 -110 20 -220 -9 -281 -13
-28 -37 -60 -52 -71 -59 -41 -59 -41 -72 83 -32 301 -141 444 -338 444 l-64 0
0 475 0 475 509 0 510 0 27 -23z"/>
</g>
</svg>
